PathFileType	4	(X/Y/Z)	S1_rest_med_right.trc
DataRate	CameraRate	NumFrames	NumMarkers	Units	OrigDataRate	OrigDataStartFrame	OrigNumFrames
250.00	250.00	19	18	mm	250.00	21563	24643
Frame#	Time	c7	r_should	l_should	clavicle	r_upa	r_elb_l	r_elb_m	r_low	r_wri_l	r_wri_m	r_met	l_upa	l_elb_l	l_elb_m	l_low	l_wri_l	l_wri_m	l_met
	X1	Y1	Z1	X2	Y2	Z2	X3	Y3	Z3	X4	Y4	Z4	X5	Y5	Z5	X6	Y6	Z6	X7	Y7	Z7	X8	Y8	Z8	X9	Y9	Z9	X10	Y10	Z10	X11	Y11	Z11	X12	Y12	Z12	X13	Y13	Z13	X14	Y14	Z14	X15	Y15	Z15	X16	Y16	Z16	X17	Y17	Z17	X18	Y18	Z18
21563	86.24800	409.75671	1416.96838	80.61811	479.05527	1353.94507	247.51147	451.31143	1367.64246	-118.91058	553.59827	1306.46582	53.06341	488.55490	1140.62354	286.29199	514.23474	1042.32410	302.12207	486.51547	1020.54022	200.90825	483.78250	907.35547	283.85626	545.73059	824.81299	330.07269	529.16699	805.90570	256.22546	517.81885	749.41486	357.94424	439.91333	1155.05212	-182.82599	446.79071	1074.19568	-200.14700	380.07925	1042.01184	-129.70161	433.19376	928.50507	-211.50134	521.30804	857.98474	-164.27815	467.80957	829.81616	-209.74516	561.59888	787.32916	-184.15123
21564	86.25200	409.76990	1416.96643	80.63722	479.06213	1353.92383	247.53200	451.30844	1367.63171	-118.88800	553.58600	1306.43799	53.07020	488.52722	1140.59644	286.29202	514.19446	1042.29089	302.12173	486.47000	1020.51947	200.89841	483.72025	907.32812	283.83994	545.67657	824.77393	330.06253	529.08923	805.87646	256.19644	517.72186	749.36169	357.90866	439.89435	1155.03711	-182.80908	446.75763	1074.18787	-200.14375	380.05304	1042.01379	-129.69693	433.14978	928.49884	-211.49370	521.25696	857.96912	-164.27901	467.75897	829.79877	-209.74310	561.53674	787.30951	-184.15947
21565	86.25600	409.77667	1416.95862	80.66158	479.06519	1353.89526	247.54967	451.30576	1367.61548	-118.86900	553.57159	1306.41309	53.07691	488.50186	1140.57043	286.29810	514.14307	1042.25500	302.11710	486.44293	1020.49127	200.89821	483.65314	907.29785	283.82291	545.61029	824.73059	330.04633	529.00616	805.83972	256.17682	517.63361	749.30902	357.86896	439.87720	1155.02502	-182.78810	446.72241	1074.17896	-200.14537	380.02356	1042.00708	-129.68007	433.10788	928.48706	-211.48192	521.21185	857.95245	-164.28278	467.70688	829.77911	-209.74059	561.47949	787.29462	-184.16190
21566	86.26000	409.78128	1416.95239	80.68185	479.06519	1353.87219	247.56615	451.29929	1367.60095	-118.84636	553.55414	1306.38770	53.08554	488.47699	1140.54846	286.29977	514.08667	1042.21948	302.11285	486.39847	1020.47601	200.89040	483.58487	907.27234	283.80527	545.55005	824.68848	330.03152	528.92798	805.80621	256.15164	517.52954	749.27167	357.83630	439.85742	1155.01782	-182.77716	446.68405	1074.17212	-200.13634	379.98175	1042.01233	-129.65646	433.06781	928.48041	-211.47755	521.16608	857.93677	-164.28387	467.64859	829.76959	-209.72650	561.41913	787.28156	-184.16611
21567	86.26400	409.78290	1416.94690	80.69862	479.06125	1353.85388	247.58530	451.29785	1367.59644	-118.82394	553.53894	1306.36890	53.09275	488.44690	1140.52869	286.30145	514.03088	1042.19592	302.11679	486.36426	1020.46606	200.89053	483.51718	907.25134	283.78546	545.48895	824.64386	330.01672	528.84937	805.77856	256.12552	517.42084	749.23694	357.81052	439.83316	1155.01233	-182.76128	446.64191	1074.17065	-200.13181	379.94565	1042.01062	-129.63956	433.02274	928.47803	-211.46909	521.11865	857.92816	-164.28275	467.59088	829.76294	-209.72224	561.36963	787.26978	-184.16930
21568	86.26800	409.78418	1416.94751	80.71714	479.06042	1353.83643	247.61510	451.28870	1367.59521	-118.80579	553.52637	1306.35645	53.10971	488.41251	1140.51270	286.30884	513.97589	1042.17432	302.11334	486.32690	1020.45227	200.88271	483.44547	907.23199	283.76743	545.41241	824.61023	330.00211	528.76978	805.74927	256.10437	517.32721	749.19568	357.78162	439.80392	1155.01221	-182.74577	446.60452	1074.16931	-200.11852	379.90430	1042.01440	-129.62073	432.97516	928.47614	-211.45782	521.06860	857.92090	-164.27977	467.53693	829.75690	-209.72285	561.31079	787.26111	-184.17447
21569	86.27200	409.78693	1416.94849	80.74686	479.05905	1353.82031	247.64195	451.27301	1367.60229	-118.78895	553.51239	1306.33447	53.13104	488.37784	1140.48584	286.32462	513.92682	1042.15222	302.11850	486.28186	1020.44464	200.87698	483.37399	907.21051	283.75256	545.34308	824.57159	329.98981	528.68610	805.72296	256.08667	517.22791	749.15460	357.75507	439.77521	1155.01660	-182.73465	446.56973	1074.16980	-200.10161	379.87003	1042.02417	-129.59674	432.92831	928.47913	-211.44310	521.01801	857.91626	-164.27635	467.47562	829.76099	-209.71011	561.25275	787.24811	-184.17552
21570	86.27600	409.78705	1416.94690	80.78334	479.04947	1353.80457	247.66710	451.26431	1367.60498	-118.76704	553.49384	1306.31726	53.15879	488.34027	1140.45410	286.33005	513.87518	1042.12805	302.12521	486.25314	1020.43390	200.87535	483.30182	907.18481	283.73639	545.26782	824.53772	329.97568	528.59937	805.69885	256.07205	517.12311	749.12701	357.73825	439.74365	1155.02222	-182.71732	446.53256	1074.17102	-200.07950	379.83371	1042.03442	-129.57742	432.87732	928.48499	-211.43587	520.96521	857.91272	-164.27477	467.40659	829.76489	-209.70547	561.19574	787.24280	-184.18105
21571	86.28000	409.78256	1416.95312	80.80882	479.04147	1353.78992	247.69273	451.25229	1367.60388	-118.74452	553.48077	1306.30469	53.19533	488.30008	1140.42883	286.34097	513.81604	1042.09900	302.13354	486.18155	1020.41199	200.86626	483.22546	907.16473	283.72305	545.17847	824.38965	329.87906	528.50592	805.67194	256.06073	517.01654	749.09198	357.71817	439.71326	1155.02881	-182.69176	446.49936	1074.17297	-200.05489	379.80072	1042.04077	-129.55515	432.82495	928.49725	-211.42731	520.91040	857.90863	-164.27522	467.35147	829.76978	-209.70082	561.13507	787.23969	-184.17712
21572	86.28400	409.77969	1416.95422	80.83202	479.03381	1353.77026	247.71428	451.23767	1367.60828	-118.71573	553.47192	1306.29688	53.22751	488.25931	1140.40051	286.35016	513.76825	1042.07690	302.14621	486.14532	1020.38898	200.86386	483.15210	907.14221	283.71063	545.08044	824.09290	329.67050	528.41028	805.63745	256.05325	516.90778	749.06427	357.70016	439.67996	1155.03394	-182.67122	446.46155	1074.17761	-200.03168	379.76306	1042.04175	-129.54059	432.77200	928.50330	-211.40829	520.85596	857.90350	-164.27231	467.29980	829.76294	-209.69466	561.08038	787.24023	-184.17758
21573	86.28800	409.78012	1416.95105	80.85695	479.02585	1353.75439	247.73456	451.21960	1367.60278	-118.68765	553.45453	1306.29419	53.25008	488.21658	1140.37329	286.34589	513.72491	1042.05750	302.15134	486.13864	1020.38446	200.85921	483.08069	907.11835	283.69812	544.98969	823.99371	329.60864	528.31958	805.60376	256.04193	516.80957	749.03278	357.68008	439.64508	1155.03613	-182.64131	446.42383	1074.18298	-200.00575	379.72729	1042.03992	-129.51297	432.71744	928.50543	-211.39406	520.80426	857.89929	-164.26527	467.23785	829.76544	-209.69098	561.02673	787.23071	-184.18234
21574	86.29200	409.77234	1416.94995	80.87972	479.01556	1353.73804	247.76054	451.20056	1367.60571	-118.66072	553.43817	1306.28735	53.27156	488.17889	1140.35229	286.35519	513.67310	1042.03503	302.15045	486.11792	1020.38586	200.85110	483.00580	907.09204	283.68671	544.91003	823.94196	329.58279	528.23749	805.57477	256.03015	516.71729	749.00110	357.65936	439.61002	1155.03845	-182.61920	446.38443	1074.19080	-199.98595	379.69440	1042.04150	-129.49628	432.66492	928.50909	-211.37854	520.74829	857.89337	-164.26302	467.16891	829.77625	-209.67758	560.96167	787.22418	-184.19589
21575	86.29600	409.76587	1416.94739	80.90546	479.00348	1353.72156	247.78212	451.17975	1367.60352	-118.63819	553.42450	1306.27771	53.29352	488.13559	1140.33423	286.36752	513.62433	1042.00623	302.15344	486.08499	1020.37323	200.83961	482.93597	907.07086	283.67535	544.82953	823.90106	329.56506	528.15710	805.54572	256.01553	516.62531	748.97156	357.64380	439.57895	1155.03552	-182.60396	446.33997	1074.19360	-199.96709	379.65054	1042.04236	-129.47910	432.61249	928.51385	-211.36871	520.69714	857.88586	-164.26817	467.10455	829.76984	-209.65845	560.90552	787.21338	-184.19728
21576	86.30000	409.76117	1416.95190	80.92929	478.99271	1353.70227	247.80235	451.16034	1367.59778	-118.61925	553.40601	1306.26562	53.30847	488.09888	1140.31482	286.37155	513.57629	1041.97937	302.15518	486.03406	1020.36475	200.83104	482.86758	907.05469	283.66434	544.75238	823.86530	329.55368	528.07495	805.51862	256.00598	516.53534	748.93799	357.62869	439.54459	1155.02588	-182.58037	446.29462	1074.19104	-199.95155	379.60559	1042.04443	-129.45735	432.55862	928.51196	-211.36006	520.64893	857.87988	-164.27124	467.05316	829.76343	-209.66652	560.84583	787.20117	-184.20329
21577	86.30400	409.75620	1416.94971	80.95311	478.97632	1353.68799	247.82080	451.14432	1367.59180	-118.59719	553.38531	1306.24829	53.31554	488.06750	1140.29248	286.37851	513.52789	1041.95618	302.16296	486.00705	1020.34949	200.83524	482.80054	907.03900	283.65649	544.62250	823.94952	329.62164	528.00433	805.48602	255.99445	516.44434	748.90930	357.61792	439.49854	1155.01965	-182.55952	446.25027	1074.18677	-199.93713	379.57507	1042.04700	-129.43555	432.50470	928.51166	-211.35164	520.59558	857.87292	-164.27042	466.99545	829.76080	-209.66983	560.78638	787.19183	-184.21072
21578	86.30800	409.75125	1416.94031	80.97540	478.96378	1353.67371	247.84386	451.12164	1367.58606	-118.58061	553.36560	1306.23523	53.32455	488.02695	1140.28577	286.39685	513.47443	1041.93042	302.17072	485.99744	1020.33960	200.83862	482.73325	907.01971	283.65280	544.43585	824.18506	329.78659	527.92487	805.45874	255.98210	516.35071	748.88171	357.60651	439.44916	1155.01868	-182.54654	446.20374	1074.18201	-199.93021	379.53162	1042.05164	-129.41748	432.45032	928.51318	-211.34468	520.53961	857.86182	-164.27324	466.94275	829.74896	-209.66821	560.72455	787.18066	-184.21585
21579	86.31200	409.74350	1416.93372	81.00043	478.94586	1353.66577	247.86118	451.10062	1367.57874	-118.55707	553.34265	1306.21448	53.34361	487.98187	1140.27026	286.40384	513.42194	1041.90540	302.17838	485.95303	1020.33661	200.83496	482.66357	907.00018	283.65146	544.33826	824.22375	329.82166	527.84406	805.43170	255.97542	516.25122	748.85687	357.59003	439.40656	1155.01892	-182.53638	446.15771	1074.17822	-199.91656	379.48764	1042.05103	-129.39616	432.39325	928.51306	-211.33789	520.48181	857.85522	-164.27446	466.88300	829.75140	-209.66858	560.66284	787.17218	-184.22940
21580	86.31600	409.73035	1416.93176	81.01825	478.93381	1353.65637	247.88388	451.08246	1367.57764	-118.53793	553.31848	1306.19092	53.36057	487.94901	1140.25952	286.42416	513.36920	1041.88782	302.18613	485.87952	1020.33093	200.81586	482.59811	906.98688	283.64993	544.24420	824.21765	329.82730	527.77191	805.40967	255.96371	516.15802	748.82916	357.57175	439.36392	1155.02148	-182.52087	446.10266	1074.17798	-199.90393	379.44720	1042.05115	-129.38571	432.33237	928.51318	-211.32812	520.42438	857.85327	-164.27771	466.81564	829.75793	-209.66489	560.60278	787.17542	-184.23706
21581	86.32000	409.71893	1416.93359	81.04626	478.91550	1353.64905	247.90904	451.05692	1367.58350	-118.52254	553.29791	1306.17957	53.37615	487.91199	1140.23376	286.42697	513.32471	1041.86755	302.18857	485.86905	1020.31897	200.80844	482.53540	906.97150	283.64450	544.16772	824.19965	329.82367	527.69958	805.39575	255.94736	516.06378	748.80408	357.55286	439.32056	1155.03101	-182.51057	446.05463	1074.17627	-199.89964	379.40384	1042.05579	-129.36234	432.27261	928.51971	-211.31264	520.36725	857.84979	-164.27882	466.75168	829.76117	-209.66351	560.54370	787.16797	-184.24266
